<svg xmlns="http://www.w3.org/2000/svg" width="40" height="40" fill="none" viewBox="0 0 24 24"><g fill-rule="evenodd"><path style="stroke:transparent" d="M0 0h24v24H0z"/><path d="M17.714 10.095h-.482a5.006 5.006 0 0 0-4.994-4.762c-2.172 0-4.157 1.382-4.862 3.334H7c-2.758 0-5 2.242-5 5a5.007 5.007 0 0 0 4.444 4.97l5.056.014v-5.443l-2.397 2.398a.5.5 0 0 1-.707 0 .5.5 0 0 1 0-.707l3.25-3.25a.524.524 0 0 1 .355-.147.5.5 0 0 1 .356.15l3.247 3.248a.5.5 0 0 1-.707.707L12.5 13.208v5.445l5.214.014c2.363 0 4.286-1.923 4.286-4.286s-1.923-4.286-4.286-4.286z" fill="#FFF"/></g></svg>