<?xml version="1.0" encoding="UTF-8" standalone="no"?>
<!DOCTYPE svg PUBLIC "-//W3C//DTD SVG 1.1//EN" "http://www.w3.org/Graphics/SVG/1.1/DTD/svg11.dtd">
<svg width="40" height="40" viewBox="0 0 40 40" version="1.1" xmlns="http://www.w3.org/2000/svg" xmlns:xlink="http://www.w3.org/1999/xlink" xml:space="preserve" xmlns:serif="http://www.serif.com/" style="fill-rule:evenodd;clip-rule:evenodd;">
    <g>
        <rect x="0" y="0" width="40" height="40" style="fill:none;stroke:black;stroke-opacity:0;stroke-width:1px;"></rect>
        <path d="M8.333,36.667L31.667,36.667C34.41,36.667 36.667,34.41 36.667,31.667L36.667,8.333C36.667,5.59 34.41,3.333 31.667,3.333L8.333,3.333C5.59,3.333 3.333,5.59 3.333,8.333L3.333,31.667C3.333,34.41 5.59,36.667 8.333,36.667ZM10.572,19.167L27.417,19.167L21.767,13.517L22.945,12.338L30.607,20L22.947,27.66L21.768,26.482L27.415,20.832L10.572,20.832L10.572,19.165L10.572,19.167Z" style="fill:white;stroke:white;stroke-width:1px;"></path>
    </g>
</svg>
