<?xml version="1.0" standalone="no"?>
<svg xmlns="http://www.w3.org/2000/svg" width="48" height="48" stroke-width="0.5" stroke="#FFFFFF" fill="none" stroke-linejoin="arcs" stroke-linecap="square" viewBox="0 0 24 24"> <g fill="none" fill-rule="evenodd"><rect width="24" height="24" style="stroke:rgba(0,0,0,0)"></rect><path d="M18,16 C19.657,16 21,17.343 21,19 C21,20.657 19.657,22 18,22 C16.343,22 15,20.657 15,19 C15,17.343 16.343,16 18,16 Z M6,9 C7.657,9 9,10.343 9,12 C9,13.657 7.657,15 6,15 C4.343,15 3,13.657 3,12 C3,10.343 4.343,9 6,9 Z M18,2 C19.657,2 21,3.343 21,5 C21,6.657 19.657,8 18,8 C16.343,8 15,6.657 15,5 C15,3.343 16.343,2 18,2 Z M8.59,13.51 L15.42,17.49 L8.59,13.51 Z M15.41,6.51 L8.59,10.49 L15.41,6.51 Z" stroke="#FFFFFF"></path></g></svg>