<?xml version="1.0" standalone="no"?>
<svg xmlns="http://www.w3.org/2000/svg" width="40" height="40" stroke-width="1.6" stroke="#000000" fill="none" stroke-linejoin="round" stroke-linecap="round" viewBox="0 0 24 24"> <g fill="none" fill-rule="evenodd"><rect width="24" height="24" style="stroke:rgba(0,0,0,0)"></rect><path d="M6.497,14.498 C4.014,14.498 2,12.484 2,10 C2,7.517 4.014,5.502 6.497,5.502 L10.835,5.502 C13.319,5.502 15.333,7.517 15.333,10 C15.333,12.484 13.319,14.498 10.835,14.498 M17.502,9.502 C19.985,9.502 22,11.517 22,14 C22,16.484 19.985,18.498 17.502,18.498 L13.164,18.498 C10.68,18.498 8.666,16.484 8.666,14 C8.666,11.517 10.68,9.502 13.164,9.502" stroke="#000000"></path></g></svg>