<?xml version="1.0" encoding="UTF-8" standalone="no"?>
<!DOCTYPE svg PUBLIC "-//W3C//DTD SVG 1.1//EN" "http://www.w3.org/Graphics/SVG/1.1/DTD/svg11.dtd">
<svg width="100%" height="100%" viewBox="0 0 40 40" version="1.1" xmlns="http://www.w3.org/2000/svg" xmlns:xlink="http://www.w3.org/1999/xlink" xml:space="preserve" xmlns:serif="http://www.serif.com/" style="fill-rule:evenodd;clip-rule:evenodd;">
    <g>
        <rect x="0" y="0" width="40" height="40" style="fill:none;stroke:black;stroke-opacity:0;stroke-width:1px;"/>
        <path d="M30,3.333C32.762,3.333 35,5.572 35,8.333C35,11.095 32.762,13.333 30,13.333C28.578,13.333 27.295,12.74 26.385,11.787L14.787,18.552C14.927,19.01 15,19.497 15,20C15,20.682 14.863,21.332 14.617,21.925L26.057,28.592C26.972,27.42 28.398,26.667 30,26.667C32.762,26.667 35,28.905 35,31.667C35,34.428 32.762,36.667 30,36.667C27.238,36.667 25,34.428 25,31.667C25,31.103 25.093,30.563 25.265,30.058L13.723,23.337C12.808,24.358 11.48,25 10,25C7.238,25 5,22.762 5,20C5,17.238 7.238,15 10,15C11.662,15 13.133,15.81 14.043,17.057L25.447,10.402C25.16,9.772 25,9.072 25,8.333C25,5.572 27.238,3.333 30,3.333" style="fill:white;"/>
    </g>
</svg>
